<svg preserveAspectRatio="none" overflow="visible" style="display: block;" width="26" height="26" viewBox="0 0 26 26" fill="none" xmlns="http://www.w3.org/2000/svg">
<g id="Frame 1686562249" style="mix-blend-mode:plus-darker">
<path id="&#244;&#130;&#148;&#144;" d="M5.9582 21.3214L5.87456 9.73225H5.19519C4.9256 9.73225 4.71532 9.64821 4.56435 9.48013C4.41338 9.30644 4.33789 9.11595 4.33789 8.90865C4.33789 8.5893 4.51043 8.32877 4.8555 8.12708L11.9565 3.86623C12.307 3.65333 12.6682 3.54688 13.0403 3.54688C13.4069 3.54688 13.7682 3.65333 14.124 3.86623L21.2251 8.12708C21.5701 8.33438 21.7427 8.5949 21.7427 8.90865C21.7427 9.11595 21.6672 9.30644 21.5162 9.48013C21.3652 9.64821 21.1577 9.73225 20.8935 9.73225H20.206L20.0415 21.3214H5.9582ZM5.42122 22.456C5.20555 22.456 5.01953 22.3747 4.86317 22.2123C4.70681 22.0498 4.62863 21.8565 4.62863 21.6324C4.62863 21.4027 4.70681 21.2066 4.86317 21.0441C5.01953 20.8816 5.20555 20.8004 5.42122 20.8004H20.5704C20.786 20.8004 20.9721 20.8816 21.1284 21.0441C21.2902 21.2066 21.3711 21.4027 21.3711 21.6324C21.3711 21.8565 21.2902 22.0498 21.1284 22.2123C20.9721 22.3747 20.786 22.456 20.5704 22.456H5.42122ZM12.4256 14.6066C12.8623 14.5898 13.2506 14.4945 13.5902 14.3209C13.9353 14.1416 14.213 13.8979 14.4233 13.5897C14.639 13.2816 14.7711 12.9258 14.8196 12.5224H15.5717C15.7443 12.5224 15.8305 12.4355 15.8305 12.2619C15.8305 12.0826 15.7443 11.9929 15.5717 11.9929H14.8277C14.8061 11.6792 14.7333 11.3878 14.6093 11.1189C14.4853 10.8444 14.302 10.6147 14.0593 10.4298H15.5717C15.6472 10.4298 15.7092 10.4046 15.7578 10.3541C15.8063 10.3037 15.8305 10.2393 15.8305 10.1609C15.8305 9.98157 15.7443 9.89193 15.5717 9.89193H10.7029C10.5681 9.89193 10.4576 9.93675 10.3713 10.0264C10.2905 10.1104 10.25 10.2281 10.25 10.3794V10.4214C10.25 10.5614 10.2905 10.6763 10.3713 10.7659C10.4576 10.8556 10.5681 10.9004 10.7029 10.9004H11.9808C12.3636 10.9004 12.6979 10.9845 12.9837 11.1525C13.2694 11.3206 13.442 11.6007 13.5013 11.9929H10.5654C10.49 11.9929 10.4279 12.0181 10.3794 12.0686C10.3309 12.119 10.3066 12.1834 10.3066 12.2619C10.3066 12.3291 10.3309 12.3907 10.3794 12.4468C10.4279 12.4972 10.49 12.5224 10.5654 12.5224H13.5013C13.4474 12.9258 13.2802 13.2087 12.9998 13.3712C12.7195 13.5337 12.3798 13.6149 11.9808 13.6149H10.897C10.7191 13.6149 10.5681 13.6653 10.4441 13.7662C10.3255 13.867 10.2662 14.0099 10.2662 14.1948V14.2368C10.2662 14.3825 10.2985 14.5085 10.3632 14.615C10.4333 14.7158 10.525 14.8223 10.6382 14.9344L13.2263 17.4892C13.3072 17.5732 13.3907 17.6461 13.477 17.7077C13.5633 17.7693 13.6711 17.8001 13.8005 17.8001C13.9623 17.8001 14.1052 17.7385 14.2292 17.6152C14.3532 17.492 14.4152 17.3463 14.4152 17.1782C14.4152 17.083 14.3909 16.9933 14.3424 16.9093C14.2993 16.8197 14.24 16.7412 14.1645 16.674L12.0617 14.615L12.4256 14.6066Z" fill="url(#paint0_linear_0_4)"/>
</g>
<defs>
<linearGradient id="paint0_linear_0_4" x1="13.0403" y1="3.54687" x2="13.0403" y2="22.456" gradientUnits="userSpaceOnUse">
<stop stop-color="#6DE9C2"/>
<stop offset="1" stop-color="#00C788"/>
</linearGradient>
</defs>
</svg>
